<?xml version="1.0" standalone="no"?>
<!DOCTYPE svg PUBLIC "-//W3C//DTD SVG 20010904//EN"
 "http://www.w3.org/TR/2001/REC-SVG-20010904/DTD/svg10.dtd">
<svg version="1.0" xmlns="http://www.w3.org/2000/svg"
 width="320.000000pt" height="320.000000pt" viewBox="0 0 320.000000 320.000000"
 preserveAspectRatio="xMidYMid meet">
<metadata>
Created by potrace 1.11, written by Peter Selinger 2001-2013
</metadata>
<g transform="translate(0.000000,320.000000) scale(0.100000,-0.100000)"
fill="#000000" stroke="none">
<path d="M1524 3121 c-152 -69 -123 -291 43 -326 70 -14 160 34 188 102 38 91
2 182 -90 224 -51 23 -89 23 -141 0z"/>
<path d="M1115 2754 c-137 -80 -253 -148 -257 -152 -4 -4 3 -18 14 -32 l20
-25 61 34 c44 24 411 235 444 255 0 1 -6 15 -15 33 l-17 31 -250 -144z"/>
<path d="M1811 2868 c-6 -17 -8 -35 -4 -38 18 -16 483 -280 492 -280 11 0 47
48 40 54 -7 4 -473 273 -496 284 -19 11 -22 8 -32 -20z"/>
<path d="M1560 2440 l0 -290 42 0 41 0 -6 128 c-4 70 -7 200 -7 290 l0 162
-35 0 -35 0 0 -290z"/>
<path d="M627 2595 c-106 -37 -149 -154 -92 -251 28 -48 91 -84 146 -84 49 1
112 32 139 70 28 40 38 126 20 170 -17 41 -71 87 -117 99 -47 13 -49 13 -96
-4z"/>
<path d="M2471 2600 c-126 -30 -172 -188 -83 -284 107 -114 293 -42 295 113 1
114 -102 197 -212 171z"/>
<path d="M887 2320 c-17 -28 -17 -29 5 -43 52 -33 457 -267 471 -273 11 -4 21
5 32 26 9 18 15 33 13 35 -7 5 -497 285 -500 285 -2 0 -12 -13 -21 -30z"/>
<path d="M2028 2206 c-136 -77 -247 -143 -247 -146 0 -3 10 -18 23 -33 l23
-28 244 142 c134 78 245 143 247 145 6 4 -28 64 -36 63 -4 -1 -118 -65 -254
-143z"/>
<path d="M630 1913 l0 -289 35 4 35 4 -2 282 -3 281 -32 3 -33 3 0 -288z"/>
<path d="M2500 1916 l0 -284 30 -4 c17 -3 32 -2 35 0 3 3 5 133 5 289 l0 283
-35 0 -35 0 0 -284z"/>
<path d="M1515 2061 c-47 -29 -73 -63 -83 -109 -29 -127 74 -232 203 -208 46
9 110 67 126 113 24 75 -16 174 -84 206 -47 23 -124 22 -162 -2z"/>
<path d="M1801 1794 l-20 -33 212 -122 c117 -67 231 -132 254 -145 l42 -24 16
31 c9 17 14 33 12 35 -3 3 -115 70 -250 148 l-246 144 -20 -34z"/>
<path d="M1235 1748 c-66 -39 -175 -103 -241 -142 l-122 -71 17 -32 16 -32
160 91 c88 49 202 115 253 145 l93 54 -18 29 c-9 17 -22 30 -28 29 -5 0 -64
-32 -130 -71z"/>
<path d="M1325 1636 l-110 -64 -3 -314 c-3 -307 -2 -315 18 -341 24 -31 73
-37 106 -13 18 13 19 30 22 275 2 157 7 261 12 261 6 0 10 -17 10 -37 0 -21 0
-316 0 -656 0 -653 1 -664 45 -681 37 -14 111 -6 133 14 22 21 22 22 22 425 0
353 2 405 15 405 13 0 15 -51 15 -400 l0 -401 25 -24 c35 -36 115 -36 150 0
l25 24 0 666 c0 383 4 665 9 665 18 0 20 -34 20 -271 0 -213 2 -244 17 -260
23 -25 78 -25 104 1 19 19 20 33 20 343 l-1 322 -111 63 -111 62 -161 0 -161
0 -110 -64z"/>
<path d="M604 1546 c-83 -36 -119 -159 -72 -241 47 -80 152 -108 232 -62 59
33 79 67 84 140 3 53 0 67 -20 97 -51 75 -142 101 -224 66z"/>
<path d="M2450 1553 c-61 -23 -110 -94 -110 -159 0 -160 202 -234 305 -112 91
108 12 279 -129 277 -28 0 -58 -3 -66 -6z"/>
<path d="M871 1251 l-21 -29 117 -67 c65 -37 133 -76 151 -87 l32 -20 0 41 c0
39 -1 40 -82 89 -46 27 -104 61 -130 75 l-47 27 -20 -29z"/>
<path d="M2168 1203 c-124 -73 -128 -76 -128 -109 0 -20 5 -34 12 -34 6 0 41
17 77 39 36 21 99 57 139 80 l72 42 -17 30 c-9 16 -20 29 -23 28 -3 0 -62 -34
-132 -76z"/>
</g>
</svg>
